<svg id="mermaid-1523457607665" width="100%" xmlns="http://www.w3.org/2000/svg" height="100%" viewBox="0 0 568.328125 356"><style>#mermaid-1523457607665 .label{font-family:trebuchet ms,verdana,arial;color:#333}#mermaid-1523457607665 .node circle,#mermaid-1523457607665 .node ellipse,#mermaid-1523457607665 .node polygon,#mermaid-1523457607665 .node rect{fill:#cde498;stroke:#13540c;stroke-width:1px}#mermaid-1523457607665 .node.clickable{cursor:pointer}#mermaid-1523457607665 .arrowheadPath{fill:green}#mermaid-1523457607665 .edgePath .path{stroke:green;stroke-width:1.5px}#mermaid-1523457607665 .edgeLabel{background-color:#e8e8e8}#mermaid-1523457607665 .cluster rect{fill:#cdffb2!important;stroke:#6eaa49!important;stroke-width:1px!important}#mermaid-1523457607665 .cluster text{fill:#333}#mermaid-1523457607665 div.mermaidTooltip{position:absolute;text-align:center;max-width:200px;padding:2px;font-family:trebuchet ms,verdana,arial;font-size:12px;background:#cdffb2;border:1px solid #6eaa49;border-radius:2px;pointer-events:none;z-index:100}#mermaid-1523457607665 .actor{stroke:#13540c;fill:#cde498}#mermaid-1523457607665 text.actor{fill:#000;stroke:none}#mermaid-1523457607665 .actor-line{stroke:grey}#mermaid-1523457607665 .messageLine0{marker-end:"url(#arrowhead)"}#mermaid-1523457607665 .messageLine0,#mermaid-1523457607665 .messageLine1{stroke-width:1.5;stroke-dasharray:"2 2";stroke:#333}#mermaid-1523457607665 #arrowhead{fill:#333}#mermaid-1523457607665 #crosshead path{fill:#333!important;stroke:#333!important}#mermaid-1523457607665 .messageText{fill:#333;stroke:none}#mermaid-1523457607665 .labelBox{stroke:#326932;fill:#cde498}#mermaid-1523457607665 .labelText,#mermaid-1523457607665 .loopText{fill:#000;stroke:none}#mermaid-1523457607665 .loopLine{stroke-width:2;stroke-dasharray:"2 2";marker-end:"url(#arrowhead)";stroke:#326932}#mermaid-1523457607665 .note{stroke:#6eaa49;fill:#fff5ad}#mermaid-1523457607665 .noteText{fill:#000;stroke:none;font-family:trebuchet ms,verdana,arial;font-size:14px}#mermaid-1523457607665 .section{stroke:none;opacity:.2}#mermaid-1523457607665 .section0,#mermaid-1523457607665 .section2{fill:#6eaa49}#mermaid-1523457607665 .section1,#mermaid-1523457607665 .section3{fill:#fff;opacity:.2}#mermaid-1523457607665 .sectionTitle0,#mermaid-1523457607665 .sectionTitle1,#mermaid-1523457607665 .sectionTitle2,#mermaid-1523457607665 .sectionTitle3{fill:#333}#mermaid-1523457607665 .sectionTitle{text-anchor:start;font-size:11px;text-height:14px}#mermaid-1523457607665 .grid .tick{stroke:#d3d3d3;opacity:.3;shape-rendering:crispEdges}#mermaid-1523457607665 .grid path{stroke-width:0}#mermaid-1523457607665 .today{fill:none;stroke:red;stroke-width:2px}#mermaid-1523457607665 .task{stroke-width:2}#mermaid-1523457607665 .taskText{text-anchor:middle;font-size:11px}#mermaid-1523457607665 .taskTextOutsideRight{fill:#000;text-anchor:start;font-size:11px}#mermaid-1523457607665 .taskTextOutsideLeft{fill:#000;text-anchor:end;font-size:11px}#mermaid-1523457607665 .taskText0,#mermaid-1523457607665 .taskText1,#mermaid-1523457607665 .taskText2,#mermaid-1523457607665 .taskText3{fill:#fff}#mermaid-1523457607665 .task0,#mermaid-1523457607665 .task1,#mermaid-1523457607665 .task2,#mermaid-1523457607665 .task3{fill:#487e3a;stroke:#13540c}#mermaid-1523457607665 .taskTextOutside0,#mermaid-1523457607665 .taskTextOutside1,#mermaid-1523457607665 .taskTextOutside2,#mermaid-1523457607665 .taskTextOutside3{fill:#000}#mermaid-1523457607665 .active0,#mermaid-1523457607665 .active1,#mermaid-1523457607665 .active2,#mermaid-1523457607665 .active3{fill:#cde498;stroke:#13540c}#mermaid-1523457607665 .activeText0,#mermaid-1523457607665 .activeText1,#mermaid-1523457607665 .activeText2,#mermaid-1523457607665 .activeText3{fill:#000!important}#mermaid-1523457607665 .done0,#mermaid-1523457607665 .done1,#mermaid-1523457607665 .done2,#mermaid-1523457607665 .done3{stroke:grey;fill:#d3d3d3;stroke-width:2}#mermaid-1523457607665 .doneText0,#mermaid-1523457607665 .doneText1,#mermaid-1523457607665 .doneText2,#mermaid-1523457607665 .doneText3{fill:#000!important}#mermaid-1523457607665 .crit0,#mermaid-1523457607665 .crit1,#mermaid-1523457607665 .crit2,#mermaid-1523457607665 .crit3{stroke:#f88;fill:red;stroke-width:2}#mermaid-1523457607665 .activeCrit0,#mermaid-1523457607665 .activeCrit1,#mermaid-1523457607665 .activeCrit2,#mermaid-1523457607665 .activeCrit3{stroke:#f88;fill:#cde498;stroke-width:2}#mermaid-1523457607665 .doneCrit0,#mermaid-1523457607665 .doneCrit1,#mermaid-1523457607665 .doneCrit2,#mermaid-1523457607665 .doneCrit3{stroke:#f88;fill:#d3d3d3;stroke-width:2;cursor:pointer;shape-rendering:crispEdges}#mermaid-1523457607665 .activeCritText0,#mermaid-1523457607665 .activeCritText1,#mermaid-1523457607665 .activeCritText2,#mermaid-1523457607665 .activeCritText3,#mermaid-1523457607665 .doneCritText0,#mermaid-1523457607665 .doneCritText1,#mermaid-1523457607665 .doneCritText2,#mermaid-1523457607665 .doneCritText3{fill:#000!important}#mermaid-1523457607665 .titleText{text-anchor:middle;font-size:18px;fill:#000}#mermaid-1523457607665 g.classGroup text{fill:#13540c;stroke:none;font-family:trebuchet ms,verdana,arial;font-size:10px}#mermaid-1523457607665 g.classGroup rect{fill:#cde498;stroke:#13540c}#mermaid-1523457607665 g.classGroup line{stroke:#13540c;stroke-width:1}#mermaid-1523457607665 .classLabel .box{stroke:none;stroke-width:0;fill:#cde498;opacity:.5}#mermaid-1523457607665 .classLabel .label{fill:#13540c;font-size:10px}#mermaid-1523457607665 .relation{stroke:#13540c;stroke-width:1;fill:none}#mermaid-1523457607665 #compositionEnd,#mermaid-1523457607665 #compositionStart{fill:#13540c;stroke:#13540c;stroke-width:1}#mermaid-1523457607665 #aggregationEnd,#mermaid-1523457607665 #aggregationStart{fill:#cde498;stroke:#13540c;stroke-width:1}#mermaid-1523457607665 #dependencyEnd,#mermaid-1523457607665 #dependencyStart,#mermaid-1523457607665 #extensionEnd,#mermaid-1523457607665 #extensionStart{fill:#13540c;stroke:#13540c;stroke-width:1}#mermaid-1523457607665 .branch-label,#mermaid-1523457607665 .commit-id,#mermaid-1523457607665 .commit-msg{fill:#d3d3d3;color:#d3d3d3}</style><style>#mermaid-1523457607665 {
    color: rgb(0, 0, 0);
    font: normal normal 400 normal 16px / normal "Times New Roman";
  }</style><g></g><defs><marker id="extensionStart" class="extension" refX="0" refY="7" markerWidth="190" markerHeight="240" orient="auto"><path d="M 1,7 L18,13 V 1 Z"></path></marker></defs><defs><marker id="extensionEnd" refX="19" refY="7" markerWidth="20" markerHeight="28" orient="auto"><path d="M 1,1 V 13 L18,7 Z"></path></marker></defs><defs><marker id="compositionStart" class="extension" refX="0" refY="7" markerWidth="190" markerHeight="240" orient="auto"><path d="M 18,7 L9,13 L1,7 L9,1 Z"></path></marker></defs><defs><marker id="compositionEnd" refX="19" refY="7" markerWidth="20" markerHeight="28" orient="auto"><path d="M 18,7 L9,13 L1,7 L9,1 Z"></path></marker></defs><defs><marker id="aggregationStart" class="extension" refX="0" refY="7" markerWidth="190" markerHeight="240" orient="auto"><path d="M 18,7 L9,13 L1,7 L9,1 Z"></path></marker></defs><defs><marker id="aggregationEnd" refX="19" refY="7" markerWidth="20" markerHeight="28" orient="auto"><path d="M 18,7 L9,13 L1,7 L9,1 Z"></path></marker></defs><defs><marker id="dependencyStart" class="extension" refX="0" refY="7" markerWidth="190" markerHeight="240" orient="auto"><path d="M 5,7 L9,13 L1,7 L9,1 Z"></path></marker></defs><defs><marker id="dependencyEnd" refX="19" refY="7" markerWidth="20" markerHeight="28" orient="auto"><path d="M 18,7 L9,13 L14,7 L9,1 Z"></path></marker></defs><g id="classId0" class="classGroup" transform="translate(16.0859375,0 )"><rect x="0" y="0" width="55.453125" height="68"></rect><text x="5" y="15">Class01</text><line x1="0" y1="21" y2="21" x2="55.453125"></line><text x="5" y="31" fill="white" class="classText"><tspan x="5">int chimp</tspan><tspan x="5" dy="10">int gorilla</tspan></text><line x1="0" y1="47" y2="47" x2="55.453125"></line><text x="5" y="62" fill="white" class="classText"><tspan x="5">size()</tspan></text></g><g id="classId1" class="classGroup" transform="translate(0,132 )"><rect x="0" y="0" width="87.625" height="30"></rect><text x="5" y="15">AveryLongClass</text><line x1="0" y1="21" y2="21" x2="87.625"></line><text x="5" y="31" fill="white" class="classText"></text><line x1="0" y1="26" y2="26" x2="87.625"></line><text x="5" y="41" fill="white" class="classText"></text></g><g id="classId2" class="classGroup" transform="translate(137.625,19 )"><rect x="0" y="0" width="51.5625" height="30"></rect><text x="5" y="15">Class03</text><line x1="0" y1="21" y2="21" x2="51.5625"></line><text x="5" y="31" fill="white" class="classText"></text><line x1="0" y1="26" y2="26" x2="51.5625"></line><text x="5" y="41" fill="white" class="classText"></text></g><g id="classId3" class="classGroup" transform="translate(137.625,132 )"><rect x="0" y="0" width="51.5625" height="30"></rect><text x="5" y="15">Class04</text><line x1="0" y1="21" y2="21" x2="51.5625"></line><text x="5" y="31" fill="white" class="classText"></text><line x1="0" y1="26" y2="26" x2="51.5625"></line><text x="5" y="41" fill="white" class="classText"></text></g><g id="classId4" class="classGroup" transform="translate(239.1875,19 )"><rect x="0" y="0" width="51.5625" height="30"></rect><text x="5" y="15">Class05</text><line x1="0" y1="21" y2="21" x2="51.5625"></line><text x="5" y="31" fill="white" class="classText"></text><line x1="0" y1="26" y2="26" x2="51.5625"></line><text x="5" y="41" fill="white" class="classText"></text></g><g id="classId5" class="classGroup" transform="translate(239.1875,132 )"><rect x="0" y="0" width="51.5625" height="30"></rect><text x="5" y="15">Class06</text><line x1="0" y1="21" y2="21" x2="51.5625"></line><text x="5" y="31" fill="white" class="classText"></text><line x1="0" y1="26" y2="26" x2="51.5625"></line><text x="5" y="41" fill="white" class="classText"></text></g><g id="classId6" class="classGroup" transform="translate(438.96875,118 )"><rect x="0" y="0" width="109.359375" height="58"></rect><text x="5" y="15">Class07</text><line x1="0" y1="21" y2="21" x2="109.359375"></line><text x="5" y="31" fill="white" class="classText"><tspan x="5">Object[] elementData</tspan></text><line x1="0" y1="37" y2="37" x2="109.359375"></line><text x="5" y="52" fill="white" class="classText"><tspan x="5">equals()</tspan></text></g><g id="classId7" class="classGroup" transform="translate(467.8671875,226 )"><rect x="0" y="0" width="51.5625" height="30"></rect><text x="5" y="15">Class08</text><line x1="0" y1="21" y2="21" x2="51.5625"></line><text x="5" y="31" fill="white" class="classText"></text><line x1="0" y1="26" y2="26" x2="51.5625"></line><text x="5" y="41" fill="white" class="classText"></text></g><g id="classId8" class="classGroup" transform="translate(349.078125,19 )"><rect x="0" y="0" width="51.5625" height="30"></rect><text x="5" y="15">Class09</text><line x1="0" y1="21" y2="21" x2="51.5625"></line><text x="5" y="31" fill="white" class="classText"></text><line x1="0" y1="26" y2="26" x2="51.5625"></line><text x="5" y="41" fill="white" class="classText"></text></g><g id="classId9" class="classGroup" transform="translate(415.98046875,306 )"><rect x="0" y="0" width="28.21875" height="30"></rect><text x="5" y="15">C2</text><line x1="0" y1="21" y2="21" x2="28.21875"></line><text x="5" y="31" fill="white" class="classText"></text><line x1="0" y1="26" y2="26" x2="28.21875"></line><text x="5" y="41" fill="white" class="classText"></text></g><g id="classId10" class="classGroup" transform="translate(360.75,132 )"><rect x="0" y="0" width="28.21875" height="30"></rect><text x="5" y="15">C3</text><line x1="0" y1="21" y2="21" x2="28.21875"></line><text x="5" y="31" fill="white" class="classText"></text><line x1="0" y1="26" y2="26" x2="28.21875"></line><text x="5" y="41" fill="white" class="classText"></text></g><path d="M43.8125,68L43.8125,72.16666666666667C43.8125,76.33333333333333,43.8125,84.66666666666667,43.8125,95.33333333333333C43.8125,106,43.8125,119,43.8125,125.5L43.8125,132" id="edge0" class="relation" marker-start="url(#extensionStart)"></path><g class="classLabel"><rect class="box" x="31.015625" y="101" width="25.5625" height="16"></rect><text class="label" x="43.8125" y="112.5" fill="red" text-anchor="middle">Cool</text></g><path d="M163.40625,49L163.40625,56.333333333333336C163.40625,63.666666666666664,163.40625,78.33333333333333,163.40625,92.16666666666667C163.40625,106,163.40625,119,163.40625,125.5L163.40625,132" id="edge1" class="relation" marker-start="url(#compositionStart)"></path><path d="M264.96875,49L264.96875,56.333333333333336C264.96875,63.666666666666664,264.96875,78.33333333333333,264.96875,92.16666666666667C264.96875,106,264.96875,119,264.96875,125.5L264.96875,132" id="edge2" class="relation" marker-start="url(#aggregationStart)"></path><path d="M493.6484375,176L493.6484375,180.16666666666666C493.6484375,184.33333333333334,493.6484375,192.66666666666666,493.6484375,201C493.6484375,209.33333333333334,493.6484375,217.66666666666666,493.6484375,221.83333333333334L493.6484375,226" id="edge3" class="relation"></path><path d="M362.3739406779661,49L356.2699505649718,56.333333333333336C350.16596045197747,63.666666666666664,337.9579802259887,78.33333333333333,331.8539901129944,94.66666666666667C325.75,111,325.75,129,325.75,147C325.75,165,325.75,183,325.75,198.66666666666666C325.75,214.33333333333334,325.75,227.66666666666666,325.75,241C325.75,254.33333333333334,325.75,267.6666666666667,340.7884114583333,280.09849874583506C355.8268229166667,292.53033082500343,385.9036458333333,304.06066165000686,400.9420572916667,309.8258270625086L415.98046875,315.5909924750103" id="edge4" class="relation" marker-end="url(#dependencyEnd)"></path><g class="classLabel"><rect class="box" x="294.90625" y="209.5" width="62.109375" height="16"></rect><text class="label" x="325.75" y="221" fill="red" text-anchor="middle">Where am i?</text></g><path d="M374.859375,49L374.859375,56.333333333333336C374.859375,63.666666666666664,374.859375,78.33333333333333,374.859375,92.16666666666667C374.859375,106,374.859375,119,374.859375,125.5L374.859375,132" id="edge5" class="relation" marker-end="url(#compositionEnd)"></path><path d="M400.640625,46.80499835580401L416.1419270833333,54.504165296503345C431.6432291666667,62.203332237202666,462.6458333333333,77.60166611860133,478.1471354166667,89.46749972596733C493.6484375,101.33333333333333,493.6484375,109.66666666666667,493.6484375,113.83333333333333L493.6484375,118" id="edge6" class="relation" marker-end="url(#extensionEnd)"></path><path d="M493.6484375,256L493.6484375,260.1666666666667C493.6484375,264.3333333333333,493.6484375,272.6666666666667,485.4069010416667,282.02006637576056C477.1653645833333,291.37346608485444,460.6822916666667,301.7469321697089,452.4407552083333,306.9336652121361L444.19921875,312.1203982545633" id="edge7" class="relation" marker-start="url(#dependencyStart)" marker-end="url(#dependencyEnd)"></path><g class="classLabel"><rect class="box" x="444.1875" y="285.046875" width="49.46875" height="16"></rect><text class="label" x="468.923828125" y="296.56019912728163" fill="red" text-anchor="middle">Cool label</text></g></svg>