<?xml version="1.0" encoding="UTF-8" standalone="no"?>
<!DOCTYPE svg PUBLIC "-//W3C//DTD SVG 1.1//EN"
 "http://www.w3.org/Graphics/SVG/1.1/DTD/svg11.dtd">
<!-- Generated by graphviz version 2.40.1 (20161225.0304)
 -->
<!-- Title: %3 Pages: 1 -->
<svg width="255pt" height="404pt"
 viewBox="0.00 0.00 254.91 404.00" xmlns="http://www.w3.org/2000/svg" xmlns:xlink="http://www.w3.org/1999/xlink">
<g id="graph0" class="graph" transform="scale(1 1) rotate(0) translate(4 400)">
<title>%3</title>
<polygon fill="#ffffff" stroke="transparent" points="-4,4 -4,-400 250.9131,-400 250.9131,4 -4,4"/>
<!-- a -->
<g id="node1" class="node">
<title>a</title>
<ellipse fill="none" stroke="#000000" cx="123" cy="-378" rx="27" ry="18"/>
<text text-anchor="middle" x="123" y="-374.3" font-family="Times,serif" font-size="14.00" fill="#000000">a</text>
</g>
<!-- b -->
<g id="node2" class="node">
<title>b</title>
<ellipse fill="none" stroke="#000000" cx="123" cy="-306" rx="27" ry="18"/>
<text text-anchor="middle" x="123" y="-302.3" font-family="Times,serif" font-size="14.00" fill="#000000">b</text>
</g>
<!-- a&#45;&#45;b -->
<g id="edge1" class="edge">
<title>a&#45;&#45;b</title>
<path fill="none" stroke="#000000" d="M123,-359.8314C123,-349 123,-335.2876 123,-324.4133"/>
</g>
<!-- c -->
<g id="node3" class="node">
<title>c</title>
<ellipse fill="none" stroke="#000000" cx="207" cy="-234" rx="27" ry="18"/>
<text text-anchor="middle" x="207" y="-230.3" font-family="Times,serif" font-size="14.00" fill="#000000">c</text>
</g>
<!-- a&#45;&#45;c -->
<g id="edge7" class="edge">
<title>a&#45;&#45;c</title>
<path fill="none" stroke="#000000" d="M134.7835,-361.2495C142.0336,-350.7225 151.3663,-336.7644 159,-324 173.8151,-299.2275 189.2238,-269.5142 198.464,-251.195"/>
</g>
<!-- d -->
<g id="node4" class="node">
<title>d</title>
<ellipse fill="none" stroke="#000000" cx="207" cy="-162" rx="27" ry="18"/>
<text text-anchor="middle" x="207" y="-158.3" font-family="Times,serif" font-size="14.00" fill="#000000">d</text>
</g>
<!-- a&#45;&#45;d -->
<g id="edge8" class="edge">
<title>a&#45;&#45;d</title>
<path fill="none" stroke="#000000" d="M142.5394,-365.4414C171.4062,-345.5265 224.0734,-303.6187 243,-252 248.508,-236.978 247.6365,-231.3135 243,-216 238.6901,-201.7653 229.2535,-187.8532 221.1229,-177.7156"/>
</g>
<!-- e -->
<g id="node5" class="node">
<title>e</title>
<ellipse fill="none" stroke="#000000" cx="141" cy="-90" rx="27" ry="18"/>
<text text-anchor="middle" x="141" y="-86.3" font-family="Times,serif" font-size="14.00" fill="#000000">e</text>
</g>
<!-- a&#45;&#45;e -->
<g id="edge9" class="edge">
<title>a&#45;&#45;e</title>
<path fill="none" stroke="#000000" d="M108.8771,-362.2844C100.7465,-352.1468 91.3099,-338.2347 87,-324 82.3635,-308.6865 84.8763,-303.8584 87,-288 96.1276,-219.8416 122.1847,-141.9151 134.4569,-107.6885"/>
</g>
<!-- f -->
<g id="node6" class="node">
<title>f</title>
<ellipse fill="none" stroke="#000000" cx="141" cy="-18" rx="27" ry="18"/>
<text text-anchor="middle" x="141" y="-14.3" font-family="Times,serif" font-size="14.00" fill="#000000">f</text>
</g>
<!-- a&#45;&#45;f -->
<g id="edge6" class="edge">
<title>a&#45;&#45;f</title>
<path fill="none" stroke="#000000" d="M102.1347,-366.3416C67.0423,-345.0152 0,-296.1405 0,-234 0,-234 0,-234 0,-162 0,-95.171 78.4885,-47.905 118.3459,-28.211"/>
</g>
<!-- b&#45;&#45;c -->
<g id="edge2" class="edge">
<title>b&#45;&#45;c</title>
<path fill="none" stroke="#000000" d="M139.5957,-291.7751C154.2264,-279.2345 175.4452,-261.047 190.1513,-248.4418"/>
</g>
<!-- b&#45;&#45;d -->
<g id="edge10" class="edge">
<title>b&#45;&#45;d</title>
<path fill="none" stroke="#000000" d="M131.536,-288.805C140.7762,-270.4858 156.1849,-240.7725 171,-216 178.6337,-203.2356 187.9664,-189.2775 195.2165,-178.7505"/>
</g>
<!-- b&#45;&#45;e -->
<g id="edge11" class="edge">
<title>b&#45;&#45;e</title>
<path fill="none" stroke="#000000" d="M124.5037,-287.9555C127.8919,-247.2967 136.0918,-148.8988 139.4879,-108.1451"/>
</g>
<!-- b&#45;&#45;f -->
<g id="edge12" class="edge">
<title>b&#45;&#45;f</title>
<path fill="none" stroke="#000000" d="M117.3145,-288.2055C105.5339,-248.4498 81.4445,-149.7985 105,-72 109.3099,-57.7653 118.7465,-43.8532 126.8771,-33.7156"/>
</g>
<!-- c&#45;&#45;d -->
<g id="edge3" class="edge">
<title>c&#45;&#45;d</title>
<path fill="none" stroke="#000000" d="M207,-215.8314C207,-205 207,-191.2876 207,-180.4133"/>
</g>
<!-- c&#45;&#45;e -->
<g id="edge13" class="edge">
<title>c&#45;&#45;e</title>
<path fill="none" stroke="#000000" d="M194.4428,-217.6691C186.9015,-207.3 177.5344,-193.3606 171,-180 159.2773,-156.0314 150.3776,-126.3574 145.4224,-107.7972"/>
</g>
<!-- c&#45;&#45;f -->
<g id="edge14" class="edge">
<title>c&#45;&#45;f</title>
<path fill="none" stroke="#000000" d="M221.1229,-218.2844C229.2535,-208.1468 238.6901,-194.2347 243,-180 247.6365,-164.6865 247.4872,-159.3579 243,-144 228.7925,-95.3733 184.1371,-52.8354 158.8751,-31.8643"/>
</g>
<!-- d&#45;&#45;e -->
<g id="edge4" class="edge">
<title>d&#45;&#45;e</title>
<path fill="none" stroke="#000000" d="M192.679,-146.3771C181.6086,-134.3003 166.3564,-117.6616 155.2931,-105.5924"/>
</g>
<!-- d&#45;&#45;f -->
<g id="edge15" class="edge">
<title>d&#45;&#45;f</title>
<path fill="none" stroke="#000000" d="M202.5776,-144.2028C197.6224,-125.6426 188.7227,-95.9686 177,-72 170.4656,-58.6394 161.0985,-44.7 153.5572,-34.3309"/>
</g>
<!-- e&#45;&#45;f -->
<g id="edge5" class="edge">
<title>e&#45;&#45;f</title>
<path fill="none" stroke="#000000" d="M141,-71.8314C141,-61 141,-47.2876 141,-36.4133"/>
</g>
</g>
</svg>
