<?xml version="1.0" encoding="UTF-8" standalone="no"?>
<!DOCTYPE svg PUBLIC "-//W3C//DTD SVG 1.1//EN"
 "http://www.w3.org/Graphics/SVG/1.1/DTD/svg11.dtd">
<!-- Generated by graphviz version 2.40.1 (20161225.0304)
 -->
<!-- Title: %3 Pages: 1 -->
<svg width="127pt" height="404pt"
 viewBox="0.00 0.00 127.00 404.00" xmlns="http://www.w3.org/2000/svg" xmlns:xlink="http://www.w3.org/1999/xlink">
<g id="graph0" class="graph" transform="scale(1 1) rotate(0) translate(4 400)">
<title>%3</title>
<polygon fill="#ffffff" stroke="transparent" points="-4,4 -4,-400 123,-400 123,4 -4,4"/>
<!-- a -->
<g id="node1" class="node">
<title>a</title>
<ellipse fill="none" stroke="#000000" cx="92" cy="-378" rx="27" ry="18"/>
<text text-anchor="middle" x="92" y="-374.3" font-family="Times,serif" font-size="14.00" fill="#000000">a</text>
</g>
<!-- b -->
<g id="node2" class="node">
<title>b</title>
<ellipse fill="none" stroke="#000000" cx="65" cy="-306" rx="27" ry="18"/>
<text text-anchor="middle" x="65" y="-302.3" font-family="Times,serif" font-size="14.00" fill="#000000">b</text>
</g>
<!-- a&#45;&#45;b -->
<g id="edge1" class="edge">
<title>a&#45;&#45;b</title>
<path fill="none" stroke="#ff0000" stroke-width="3" d="M85.3258,-360.2022C81.1407,-349.0419 75.7679,-334.7143 71.5974,-323.593"/>
</g>
<!-- d -->
<g id="node4" class="node">
<title>d</title>
<ellipse fill="none" stroke="#000000" cx="82" cy="-162" rx="27" ry="18"/>
<text text-anchor="middle" x="82" y="-158.3" font-family="Times,serif" font-size="14.00" fill="#000000">d</text>
</g>
<!-- a&#45;&#45;d -->
<g id="edge6" class="edge">
<title>a&#45;&#45;d</title>
<path fill="none" stroke="#000000" d="M95.7474,-360.0931C97.7466,-349.6241 99.9966,-336.1241 101,-324 105.3443,-271.5084 93.3458,-209.775 86.4593,-179.9392"/>
</g>
<!-- c -->
<g id="node3" class="node">
<title>c</title>
<ellipse fill="none" stroke="#000000" cx="27" cy="-234" rx="27" ry="18"/>
<text text-anchor="middle" x="27" y="-230.3" font-family="Times,serif" font-size="14.00" fill="#000000">c</text>
</g>
<!-- b&#45;&#45;c -->
<g id="edge2" class="edge">
<title>b&#45;&#45;c</title>
<path fill="none" stroke="#000000" d="M55.9945,-288.937C50.0248,-277.626 42.2149,-262.8282 36.2048,-251.4407"/>
</g>
<!-- b&#45;&#45;d -->
<g id="edge7" class="edge">
<title>b&#45;&#45;d</title>
<path fill="none" stroke="#ff0000" stroke-width="3" d="M67.1187,-288.0535C70.3763,-260.4592 76.5809,-207.9026 79.8546,-180.1727"/>
</g>
<!-- c&#45;&#45;d -->
<g id="edge3" class="edge">
<title>c&#45;&#45;d</title>
<path fill="none" stroke="#ff0000" stroke-width="3" d="M39.4804,-217.6621C48.4814,-205.8788 60.5793,-190.0416 69.569,-178.2733"/>
</g>
<!-- f -->
<g id="node6" class="node">
<title>f</title>
<ellipse fill="none" stroke="#000000" cx="54" cy="-18" rx="27" ry="18"/>
<text text-anchor="middle" x="54" y="-14.3" font-family="Times,serif" font-size="14.00" fill="#000000">f</text>
</g>
<!-- c&#45;&#45;f -->
<g id="edge8" class="edge">
<title>c&#45;&#45;f</title>
<path fill="none" stroke="#ff0000" stroke-width="3" d="M28.9309,-215.9984C32.1813,-186.0729 39.0721,-124.2135 46,-72 47.5956,-59.9744 49.5956,-46.4744 51.1967,-35.9808"/>
</g>
<!-- e -->
<g id="node5" class="node">
<title>e</title>
<ellipse fill="none" stroke="#000000" cx="82" cy="-90" rx="27" ry="18"/>
<text text-anchor="middle" x="82" y="-86.3" font-family="Times,serif" font-size="14.00" fill="#000000">e</text>
</g>
<!-- d&#45;&#45;e -->
<g id="edge4" class="edge">
<title>d&#45;&#45;e</title>
<path fill="none" stroke="#000000" d="M82,-143.8314C82,-133 82,-119.2876 82,-108.4133"/>
</g>
<!-- e&#45;&#45;f -->
<g id="edge5" class="edge">
<title>e&#45;&#45;f</title>
<path fill="none" stroke="#000000" d="M75.222,-72.5708C70.8521,-61.3339 65.1894,-46.7727 60.8126,-35.5182"/>
</g>
</g>
</svg>
