<?xml version="1.0" encoding="UTF-8" standalone="no"?>
<!DOCTYPE svg PUBLIC "-//W3C//DTD SVG 1.1//EN"
 "http://www.w3.org/Graphics/SVG/1.1/DTD/svg11.dtd">
<!-- Generated by graphviz version 2.40.1 (20161225.0304)
 -->
<!-- Title: %3 Pages: 1 -->
<svg width="134pt" height="332pt"
 viewBox="0.00 0.00 134.00 332.00" xmlns="http://www.w3.org/2000/svg" xmlns:xlink="http://www.w3.org/1999/xlink">
<g id="graph0" class="graph" transform="scale(1 1) rotate(0) translate(4 328)">
<title>%3</title>
<polygon fill="#ffffff" stroke="transparent" points="-4,4 -4,-328 130,-328 130,4 -4,4"/>
<!-- a -->
<g id="node1" class="node">
<title>a</title>
<ellipse fill="none" stroke="#000000" cx="71" cy="-306" rx="27" ry="18"/>
<text text-anchor="middle" x="71" y="-302.3" font-family="Times,serif" font-size="14.00" fill="#000000">a</text>
</g>
<!-- b -->
<g id="node2" class="node">
<title>b</title>
<ellipse fill="none" stroke="#000000" cx="99" cy="-234" rx="27" ry="18"/>
<text text-anchor="middle" x="99" y="-230.3" font-family="Times,serif" font-size="14.00" fill="#000000">b</text>
</g>
<!-- a&#45;&#45;b -->
<g id="edge1" class="edge">
<title>a&#45;&#45;b</title>
<path fill="none" stroke="#ff0000" stroke-width="3" d="M77.778,-288.5708C82.1479,-277.3339 87.8106,-262.7727 92.1874,-251.5182"/>
</g>
<!-- d -->
<g id="node3" class="node">
<title>d</title>
<ellipse fill="none" stroke="#000000" cx="44" cy="-162" rx="27" ry="18"/>
<text text-anchor="middle" x="44" y="-158.3" font-family="Times,serif" font-size="14.00" fill="#000000">d</text>
</g>
<!-- a&#45;&#45;d -->
<g id="edge8" class="edge">
<title>a&#45;&#45;d</title>
<path fill="none" stroke="#000000" d="M67.635,-288.0535C62.4611,-260.4592 52.6067,-207.9026 47.4074,-180.1727"/>
</g>
<!-- b&#45;&#45;d -->
<g id="edge2" class="edge">
<title>b&#45;&#45;d</title>
<path fill="none" stroke="#ff0000" stroke-width="3" d="M86.5196,-217.6621C77.5186,-205.8788 65.4207,-190.0416 56.431,-178.2733"/>
</g>
<!-- c -->
<g id="node4" class="node">
<title>c</title>
<ellipse fill="none" stroke="#000000" cx="99" cy="-90" rx="27" ry="18"/>
<text text-anchor="middle" x="99" y="-86.3" font-family="Times,serif" font-size="14.00" fill="#000000">c</text>
</g>
<!-- b&#45;&#45;c -->
<g id="edge5" class="edge">
<title>b&#45;&#45;c</title>
<path fill="none" stroke="#000000" d="M99,-215.7623C99,-188.0633 99,-135.7005 99,-108.0896"/>
</g>
<!-- d&#45;&#45;c -->
<g id="edge3" class="edge">
<title>d&#45;&#45;c</title>
<path fill="none" stroke="#ff0000" stroke-width="3" d="M56.4804,-145.6621C65.4814,-133.8788 77.5793,-118.0416 86.569,-106.2733"/>
</g>
<!-- e -->
<g id="node6" class="node">
<title>e</title>
<ellipse fill="none" stroke="#000000" cx="27" cy="-90" rx="27" ry="18"/>
<text text-anchor="middle" x="27" y="-86.3" font-family="Times,serif" font-size="14.00" fill="#000000">e</text>
</g>
<!-- d&#45;&#45;e -->
<g id="edge6" class="edge">
<title>d&#45;&#45;e</title>
<path fill="none" stroke="#000000" d="M39.7978,-144.2022C37.1823,-133.1252 33.8302,-118.928 31.2128,-107.8425"/>
</g>
<!-- f -->
<g id="node5" class="node">
<title>f</title>
<ellipse fill="none" stroke="#000000" cx="63" cy="-18" rx="27" ry="18"/>
<text text-anchor="middle" x="63" y="-14.3" font-family="Times,serif" font-size="14.00" fill="#000000">f</text>
</g>
<!-- c&#45;&#45;f -->
<g id="edge4" class="edge">
<title>c&#45;&#45;f</title>
<path fill="none" stroke="#ff0000" stroke-width="3" d="M90.2854,-72.5708C84.6253,-61.2506 77.2784,-46.5568 71.6343,-35.2687"/>
</g>
<!-- e&#45;&#45;f -->
<g id="edge7" class="edge">
<title>e&#45;&#45;f</title>
<path fill="none" stroke="#000000" d="M35.7146,-72.5708C41.3747,-61.2506 48.7216,-46.5568 54.3657,-35.2687"/>
</g>
</g>
</svg>
