<?xml version="1.0" encoding="UTF-8" standalone="no"?>
<!DOCTYPE svg PUBLIC "-//W3C//DTD SVG 1.1//EN"
 "http://www.w3.org/Graphics/SVG/1.1/DTD/svg11.dtd">
<!-- Generated by graphviz version 2.38.0 (20140413.2041)
 -->
<!-- Title: %3 Pages: 1 -->
<svg width="195pt" height="318pt"
 viewBox="0.00 0.00 195.00 318.00" xmlns="http://www.w3.org/2000/svg" xmlns:xlink="http://www.w3.org/1999/xlink">
<g id="graph0" class="graph" transform="scale(1 1) rotate(0) translate(4 314)">
<title>%3</title>
<polygon fill="white" stroke="none" points="-4,4 -4,-314 191,-314 191,4 -4,4"/>
<g id="clust1" class="cluster"><title>cluster_0</title>
<polygon fill="none" stroke="black" points="8,-8 8,-302 90,-302 90,-8 8,-8"/>
<text text-anchor="middle" x="49" y="-286.8" font-family="Times,serif" font-size="14.00">Subgraph A</text>
</g>
<g id="clust2" class="cluster"><title>cluster_1</title>
<polygon fill="none" stroke="black" points="98,-152 98,-227 179,-227 179,-152 98,-152"/>
<text text-anchor="middle" x="138.5" y="-211.8" font-family="Times,serif" font-size="14.00">Subgraph B</text>
</g>
<!-- a -->
<g id="node1" class="node"><title>a</title>
<ellipse fill="none" stroke="black" cx="55" cy="-253" rx="27" ry="18"/>
<text text-anchor="middle" x="55" y="-249.3" font-family="Times,serif" font-size="14.00">a</text>
</g>
<!-- b -->
<g id="node2" class="node"><title>b</title>
<ellipse fill="none" stroke="black" cx="55" cy="-178" rx="27" ry="18"/>
<text text-anchor="middle" x="55" y="-174.3" font-family="Times,serif" font-size="14.00">b</text>
</g>
<!-- a&#45;&gt;b -->
<g id="edge1" class="edge"><title>a&#45;&gt;b</title>
<path fill="none" stroke="black" d="M55,-234.7C55,-226.245 55,-215.869 55,-206.373"/>
<polygon fill="none" stroke="black" points="58.5001,-206.176 55,-196.176 51.5001,-206.176 58.5001,-206.176"/>
</g>
<!-- f -->
<g id="node5" class="node"><title>f</title>
<ellipse fill="none" stroke="black" cx="133" cy="-178" rx="27" ry="18"/>
<text text-anchor="middle" x="133" y="-174.3" font-family="Times,serif" font-size="14.00">f</text>
</g>
<!-- a&#45;&gt;f -->
<g id="edge4" class="edge"><title>a&#45;&gt;f</title>
<path fill="none" stroke="black" d="M75.3145,-240.688C81.6071,-236.746 88.3628,-232.037 94,-227 101.963,-219.885 109.625,-211.053 116.018,-202.913"/>
<polygon fill="none" stroke="black" points="118.93,-204.866 122.18,-194.782 113.351,-200.638 118.93,-204.866"/>
</g>
<!-- c -->
<g id="node3" class="node"><title>c</title>
<ellipse fill="none" stroke="black" cx="55" cy="-106" rx="27" ry="18"/>
<text text-anchor="middle" x="55" y="-102.3" font-family="Times,serif" font-size="14.00">c</text>
</g>
<!-- b&#45;&gt;c -->
<g id="edge2" class="edge"><title>b&#45;&gt;c</title>
<path fill="none" stroke="black" d="M55,-159.697C55,-151.983 55,-142.712 55,-134.112"/>
<polygon fill="none" stroke="black" points="58.5001,-134.104 55,-124.104 51.5001,-134.104 58.5001,-134.104"/>
</g>
<!-- d -->
<g id="node4" class="node"><title>d</title>
<ellipse fill="none" stroke="black" cx="55" cy="-34" rx="27" ry="18"/>
<text text-anchor="middle" x="55" y="-30.3" font-family="Times,serif" font-size="14.00">d</text>
</g>
<!-- c&#45;&gt;d -->
<g id="edge3" class="edge"><title>c&#45;&gt;d</title>
<path fill="none" stroke="black" d="M55,-87.6966C55,-79.9827 55,-70.7125 55,-62.1124"/>
<polygon fill="none" stroke="black" points="58.5001,-62.1043 55,-52.1043 51.5001,-62.1044 58.5001,-62.1043"/>
</g>
<!-- f&#45;&gt;c -->
<g id="edge5" class="edge"><title>f&#45;&gt;c</title>
<path fill="none" stroke="black" d="M117.59,-163.17C106.266,-153.008 90.691,-139.03 77.9113,-127.561"/>
<polygon fill="none" stroke="black" points="80.1584,-124.875 70.3783,-120.801 75.483,-130.085 80.1584,-124.875"/>
</g>
</g>
</svg>
