<?xml version="1.0" encoding="UTF-8" standalone="no"?>
<!DOCTYPE svg PUBLIC "-//W3C//DTD SVG 1.1//EN"
 "http://www.w3.org/Graphics/SVG/1.1/DTD/svg11.dtd">
<!-- Generated by graphviz version 2.40.1 (20161225.0304)
 -->
<!-- Title: %3 Pages: 1 -->
<svg width="185pt" height="305pt"
 viewBox="0.00 0.00 185.00 305.00" xmlns="http://www.w3.org/2000/svg" xmlns:xlink="http://www.w3.org/1999/xlink">
<g id="graph0" class="graph" transform="scale(1 1) rotate(0) translate(4 301)">
<title>%3</title>
<polygon fill="#ffffff" stroke="transparent" points="-4,4 -4,-301 181,-301 181,4 -4,4"/>
<!-- a -->
<g id="node1" class="node">
<title>a</title>
<ellipse fill="none" stroke="#000000" cx="30" cy="-279" rx="27" ry="18"/>
<text text-anchor="middle" x="30" y="-275.3" font-family="Times,serif" font-size="14.00" fill="#000000">a</text>
</g>
<!-- b -->
<g id="node2" class="node">
<title>b</title>
<ellipse fill="none" stroke="#000000" cx="27" cy="-18" rx="27" ry="18"/>
<text text-anchor="middle" x="27" y="-14.3" font-family="Times,serif" font-size="14.00" fill="#000000">b</text>
</g>
<!-- a&#45;&gt;b -->
<g id="edge1" class="edge">
<title>a&#45;&gt;b</title>
<path fill="none" stroke="#000000" d="M29.789,-260.647C29.2737,-215.8139 27.9478,-100.4607 27.3282,-46.5557"/>
<polygon fill="none" stroke="#000000" points="30.8255,-46.2918 27.2107,-36.3327 23.826,-46.3723 30.8255,-46.2918"/>
<text text-anchor="middle" x="37" y="-144.8" font-family="Times,serif" font-size="14.00" fill="#000000">0.2</text>
</g>
<!-- c -->
<g id="node3" class="node">
<title>c</title>
<ellipse fill="none" stroke="#000000" cx="77" cy="-192" rx="27" ry="18"/>
<text text-anchor="middle" x="77" y="-188.3" font-family="Times,serif" font-size="14.00" fill="#000000">c</text>
</g>
<!-- a&#45;&gt;c -->
<g id="edge2" class="edge">
<title>a&#45;&gt;c</title>
<path fill="none" stroke="#000000" d="M39.2857,-261.8116C46.0449,-249.3 55.317,-232.1366 62.9761,-217.9592"/>
<polygon fill="none" stroke="#000000" points="66.0599,-219.6145 67.7336,-209.1527 59.9011,-216.2873 66.0599,-219.6145"/>
<text text-anchor="middle" x="65" y="-231.8" font-family="Times,serif" font-size="14.00" fill="#000000">0.4</text>
</g>
<!-- c&#45;&gt;b -->
<g id="edge3" class="edge">
<title>c&#45;&gt;b</title>
<path fill="none" stroke="#000000" d="M71.8374,-174.0343C63.0944,-143.6084 45.317,-81.7433 34.9667,-45.724"/>
<polygon fill="none" stroke="#000000" points="38.2602,-44.5124 32.1345,-35.868 31.5325,-46.4457 38.2602,-44.5124"/>
<text text-anchor="middle" x="65" y="-101.3" font-family="Times,serif" font-size="14.00" fill="#000000">0.6</text>
</g>
<!-- e -->
<g id="node4" class="node">
<title>e</title>
<ellipse fill="none" stroke="#000000" cx="114" cy="-105" rx="27" ry="18"/>
<text text-anchor="middle" x="114" y="-101.3" font-family="Times,serif" font-size="14.00" fill="#000000">e</text>
</g>
<!-- c&#45;&gt;e -->
<g id="edge4" class="edge">
<title>c&#45;&gt;e</title>
<path fill="none" stroke="#000000" d="M84.4875,-174.3943C89.6531,-162.2482 96.6196,-145.8674 102.487,-132.0711"/>
<polygon fill="none" stroke="#000000" points="105.8308,-133.1517 106.5236,-122.5796 99.3891,-130.4121 105.8308,-133.1517"/>
<text text-anchor="middle" x="106" y="-144.8" font-family="Times,serif" font-size="14.00" fill="#000000">0.6</text>
</g>
<!-- e&#45;&gt;b -->
<g id="edge6" class="edge">
<title>e&#45;&gt;b</title>
<path fill="none" stroke="#000000" d="M98.8458,-89.8458C85.123,-76.123 64.7342,-55.7342 49.1784,-40.1784"/>
<polygon fill="none" stroke="#000000" points="51.5266,-37.5768 41.9806,-32.9806 46.5768,-42.5266 51.5266,-37.5768"/>
<text text-anchor="middle" x="84" y="-57.8" font-family="Times,serif" font-size="14.00" fill="#000000">0.7</text>
</g>
<!-- e&#45;&gt;e -->
<g id="edge5" class="edge">
<title>e&#45;&gt;e</title>
<path fill="none" stroke="#000000" d="M138.5325,-112.752C149.5078,-113.4902 159,-110.9063 159,-105 159,-101.0317 154.7151,-98.5632 148.5743,-97.5944"/>
<polygon fill="none" stroke="#000000" points="148.6472,-94.0949 138.5325,-97.248 148.4059,-101.0908 148.6472,-94.0949"/>
<text text-anchor="middle" x="168" y="-101.3" font-family="Times,serif" font-size="14.00" fill="#000000">0.1</text>
</g>
</g>
</svg>
